<svg xmlns="http://www.w3.org/2000/svg" viewBox="0 0 860 542" width="860" height="542" font-family="-apple-system, Segoe UI, Helvetica, Arial, sans-serif"><rect width="860" height="542" rx="10" fill="#ffffff"/><text x="24.0" y="30.0" font-size="17" fill="#121a1b" text-anchor="start" font-weight="600">Flows reported per application (log scale)</text><rect x="24" y="44" width="11" height="11" rx="2" fill="#3a5355"/><text x="41.0" y="54.0" font-size="12.5" fill="#5f6b6a" text-anchor="start">piiflow</text><rect x="113.4" y="44" width="11" height="11" rx="2" fill="#9cb8b5"/><text x="130.4" y="54.0" font-size="12.5" fill="#5f6b6a" text-anchor="start">Privado</text><line x1="190.0" x2="190.0" y1="64" y2="508" stroke="#e3e8e8"/><text x="190.0" y="526.0" font-size="12" fill="#5f6b6a" text-anchor="middle">1</text><line x1="340.0" x2="340.0" y1="64" y2="508" stroke="#e3e8e8"/><text x="340.0" y="526.0" font-size="12" fill="#5f6b6a" text-anchor="middle">10</text><line x1="490.0" x2="490.0" y1="64" y2="508" stroke="#e3e8e8"/><text x="490.0" y="526.0" font-size="12" fill="#5f6b6a" text-anchor="middle">100</text><line x1="640.0" x2="640.0" y1="64" y2="508" stroke="#e3e8e8"/><text x="640.0" y="526.0" font-size="12" fill="#5f6b6a" text-anchor="middle">1,000</text><line x1="790.0" x2="790.0" y1="64" y2="508" stroke="#e3e8e8"/><text x="790.0" y="526.0" font-size="12" fill="#5f6b6a" text-anchor="middle">10,000</text><text x="178.0" y="82.0" font-size="13" fill="#121a1b" text-anchor="end">FastAPI template</text><text x="178.0" y="96.0" font-size="11" fill="#5f6b6a" text-anchor="end">Python · 2k lines</text><rect x="190" y="72" width="71.6" height="11" rx="2" fill="#3a5355"/><text x="267.6" y="82.0" font-size="11.5" fill="#121a1b" text-anchor="start">3</text><rect x="190" y="86" width="45.2" height="11" rx="2" fill="#9cb8b5"/><text x="241.2" y="96.0" font-size="11.5" fill="#121a1b" text-anchor="start">2</text><text x="178.0" y="118.0" font-size="13" fill="#121a1b" text-anchor="end">Taxonomy</text><text x="178.0" y="132.0" font-size="11" fill="#5f6b6a" text-anchor="end">TypeScript · 8k lines</text><rect x="190" y="108" width="135.5" height="11" rx="2" fill="#3a5355"/><text x="331.5" y="118.0" font-size="11.5" fill="#121a1b" text-anchor="start">8</text><rect x="190" y="122" width="0.0" height="11" rx="2" fill="#9cb8b5"/><text x="196.0" y="132.0" font-size="11.5" fill="#121a1b" text-anchor="start">0</text><text x="178.0" y="154.0" font-size="13" fill="#121a1b" text-anchor="end">Open SaaS</text><text x="178.0" y="168.0" font-size="11" fill="#5f6b6a" text-anchor="end">TypeScript · 11k lines</text><rect x="190" y="144" width="104.8" height="11" rx="2" fill="#3a5355"/><text x="300.8" y="154.0" font-size="11.5" fill="#121a1b" text-anchor="start">5</text><rect x="190" y="158" width="143.1" height="11" rx="2" fill="#9cb8b5"/><text x="339.1" y="168.0" font-size="11.5" fill="#121a1b" text-anchor="start">9</text><text x="178.0" y="190.0" font-size="13" fill="#121a1b" text-anchor="end">Healthchecks</text><text x="178.0" y="204.0" font-size="11" fill="#5f6b6a" text-anchor="end">Python · 17k lines</text><rect x="190" y="180" width="104.8" height="11" rx="2" fill="#3a5355"/><text x="300.8" y="190.0" font-size="11.5" fill="#121a1b" text-anchor="start">5</text><rect x="190" y="194" width="270.9" height="11" rx="2" fill="#9cb8b5"/><text x="466.9" y="204.0" font-size="11.5" fill="#121a1b" text-anchor="start">64</text><text x="178.0" y="226.0" font-size="13" fill="#121a1b" text-anchor="end">Vercel chatbot</text><text x="178.0" y="240.0" font-size="11" fill="#5f6b6a" text-anchor="end">TypeScript · 20k lines</text><rect x="190" y="216" width="253.5" height="11" rx="2" fill="#3a5355"/><text x="449.5" y="226.0" font-size="11.5" fill="#121a1b" text-anchor="start">49</text><rect x="190" y="230" width="104.8" height="11" rx="2" fill="#9cb8b5"/><text x="300.8" y="240.0" font-size="11.5" fill="#121a1b" text-anchor="start">5</text><text x="178.0" y="262.0" font-size="13" fill="#121a1b" text-anchor="end">CTFd</text><text x="178.0" y="276.0" font-size="11" fill="#5f6b6a" text-anchor="end">Python · 23k lines</text><rect x="190" y="252" width="238.7" height="11" rx="2" fill="#3a5355"/><text x="434.7" y="262.0" font-size="11.5" fill="#121a1b" text-anchor="start">39</text><rect x="190" y="266" width="293.1" height="11" rx="2" fill="#9cb8b5"/><text x="489.1" y="276.0" font-size="11.5" fill="#121a1b" text-anchor="start">90</text><text x="178.0" y="298.0" font-size="13" fill="#121a1b" text-anchor="end">Hoppscotch</text><text x="178.0" y="312.0" font-size="11" fill="#5f6b6a" text-anchor="end">TypeScript · 27k lines</text><rect x="190" y="288" width="126.8" height="11" rx="2" fill="#3a5355"/><text x="322.8" y="298.0" font-size="11.5" fill="#121a1b" text-anchor="start">7</text><rect x="190" y="302" width="116.7" height="11" rx="2" fill="#9cb8b5"/><text x="312.7" y="312.0" font-size="11.5" fill="#121a1b" text-anchor="start">6</text><text x="178.0" y="334.0" font-size="13" fill="#121a1b" text-anchor="end">Redash</text><text x="178.0" y="348.0" font-size="11" fill="#5f6b6a" text-anchor="end">Python · 28k lines</text><rect x="190" y="324" width="357.6" height="11" rx="2" fill="#3a5355"/><text x="553.6" y="334.0" font-size="11.5" fill="#121a1b" text-anchor="start">242</text><rect x="190" y="338" width="451.4" height="11" rx="2" fill="#9cb8b5"/><text x="647.4" y="348.0" font-size="11.5" fill="#121a1b" text-anchor="start">1,022</text><text x="178.0" y="370.0" font-size="13" fill="#121a1b" text-anchor="end">PrivateGPT</text><text x="178.0" y="384.0" font-size="11" fill="#5f6b6a" text-anchor="end">Python · 97k lines</text><rect x="190" y="360" width="432.2" height="11" rx="2" fill="#3a5355"/><text x="628.2" y="370.0" font-size="11.5" fill="#121a1b" text-anchor="start">761</text><rect x="190" y="374" width="297.3" height="11" rx="2" fill="#9cb8b5"/><text x="493.3" y="384.0" font-size="11.5" fill="#121a1b" text-anchor="start">96</text><text x="178.0" y="406.0" font-size="13" fill="#121a1b" text-anchor="end">Umami</text><text x="178.0" y="420.0" font-size="11" fill="#5f6b6a" text-anchor="end">TypeScript · 107k lines</text><rect x="190" y="396" width="273.9" height="11" rx="2" fill="#3a5355"/><text x="469.9" y="406.0" font-size="11.5" fill="#121a1b" text-anchor="start">67</text><rect x="190" y="410" width="195.2" height="11" rx="2" fill="#9cb8b5"/><text x="391.2" y="420.0" font-size="11.5" fill="#121a1b" text-anchor="start">20</text><text x="178.0" y="442.0" font-size="13" fill="#121a1b" text-anchor="end">Ghost</text><text x="178.0" y="456.0" font-size="11" fill="#5f6b6a" text-anchor="end">TypeScript · 160k lines</text><rect x="190" y="432" width="300.0" height="11" rx="2" fill="#3a5355"/><text x="496.0" y="442.0" font-size="11.5" fill="#121a1b" text-anchor="start">100</text><rect x="190" y="446" width="337.9" height="11" rx="2" fill="#9cb8b5"/><text x="533.9" y="456.0" font-size="11.5" fill="#121a1b" text-anchor="start">179</text><text x="178.0" y="478.0" font-size="13" fill="#121a1b" text-anchor="end">Polar</text><text x="178.0" y="492.0" font-size="11" fill="#5f6b6a" text-anchor="end">Python · 223k lines</text><rect x="190" y="468" width="599.6" height="11" rx="2" fill="#3a5355"/><text x="795.6" y="478.0" font-size="11.5" fill="#121a1b" text-anchor="start">9,940</text><text x="192.0" y="492.0" font-size="11.5" fill="#b3261e" text-anchor="start">Privado did not finish (out of memory)</text></svg>
